<svg width="262" height="44" viewBox="0 0 262 44" fill="none" xmlns="http://www.w3.org/2000/svg">
<path d="M148.372 4.59521C148.372 4.59521 145.032 24.8382 145.121 25.9795C145.062 24.8382 140.289 4.59521 140.289 4.59521H124.51L119.082 35.6505L113.534 4.59521H98.4112L82.0955 35.5003L83.2588 28.8928H68.7924L73.0577 4.59521H59.9336L53.8488 39.2846H80.0672H81.4095H93.3703L95.846 33.7884H105.838L106.405 39.2846H118.425H119.708H129.999C129.999 39.2846 133.459 18.9515 133.459 17.7802C133.518 18.8915 138.529 39.2846 138.529 39.2846H153.95L160.035 4.59521C160.005 4.59521 148.372 4.59521 148.372 4.59521ZM99.6043 24.4478C99.6043 24.4478 104.257 13.7857 104.496 12.9147C104.436 13.8157 105.6 24.4478 105.6 24.4478H99.6043Z" fill="black"/>
<path d="M248.772 4.59525L245.431 23.7871C244.805 27.3611 243.552 28.7127 241.136 29.0731C237.646 29.6437 236.244 28.112 236.602 24.8382C236.662 24.4478 236.692 24.1174 236.752 23.7871L240.092 4.59525H227.028L223.478 24.7782L219.899 4.59525H204.776L194.456 24.1174C197.976 11.5331 192.666 4.59525 181.63 4.59525H163.197L157.142 39.2847C157.142 39.2847 174.65 39.2847 174.71 39.2847C180.944 39.2847 185.866 37.3625 189.385 33.6983L186.432 39.2847H199.735L202.211 33.7884H212.203L212.74 39.2847H226.043L225.387 35.6205C228.251 39.1045 233.799 40.6963 242.21 39.7051C251.337 38.6539 256.796 33.398 258.287 25.0185L261.866 4.59525H248.772ZM181.958 23.727C180.616 27.301 178.23 28.8929 174.263 28.8929H172.055L174.442 15.0171H176.738C181.451 14.9871 183.897 18.471 181.958 23.727ZM205.94 24.4478C205.94 24.4478 210.593 13.7857 210.831 12.9147C210.772 13.8157 211.935 24.4478 211.935 24.4478H205.94Z" fill="black"/>
<path d="M6.90012 44H34.1327C38.6665 44 43.0213 40.2758 43.8267 35.7106L45.1093 28.3823C33.8941 32.7072 20.8594 37.7229 20.3822 37.8731C13.8499 40.2758 10.8672 39.7051 8.77926 35.1099C8.6003 34.7495 5.31926 25.8594 2.96288 19.6123L0.12926 35.7106C-0.676085 40.3058 2.36633 44 6.90012 44Z" fill="black"/>
<path d="M29.5691 28.9229C29.7779 28.8628 38.07 25.8294 46.0638 22.886L48.629 8.28942C49.4343 3.72423 46.3919 0 41.8581 0H17.6978C19.0997 8.40956 21.4859 22.6157 21.8438 24.2976C23.0667 29.6737 25.7214 30.0942 29.5691 28.9229Z" fill="black"/>
<path d="M256.837 40.5912C255.763 40.5912 254.928 39.7202 254.928 38.669C254.928 37.5878 255.793 36.7468 256.837 36.7468C257.881 36.7468 258.746 37.6178 258.746 38.669C258.776 39.7202 257.911 40.5912 256.837 40.5912ZM255.256 38.669C255.256 39.54 255.972 40.2608 256.837 40.2608C257.702 40.2608 258.418 39.54 258.418 38.669C258.418 37.798 257.702 37.0772 256.837 37.0772C255.972 37.0772 255.256 37.768 255.256 38.669ZM257.702 39.6601C257.702 39.6902 257.702 39.7202 257.702 39.7202C257.702 39.7502 257.672 39.7502 257.642 39.7502H257.314C257.284 39.7502 257.254 39.7502 257.254 39.7202L256.837 38.9393H256.509V39.6902C256.509 39.7202 256.479 39.7502 256.449 39.7502H256.151C256.121 39.7502 256.091 39.7202 256.091 39.6902V37.6178C256.091 37.5878 256.121 37.5577 256.151 37.5577H256.777C257.016 37.5577 257.105 37.5878 257.195 37.6178C257.433 37.7079 257.583 37.9482 257.583 38.2485C257.583 38.5188 257.463 38.7291 257.254 38.8492C257.254 38.8492 257.254 38.8793 257.284 38.8793L257.702 39.6601ZM257.016 37.9782C256.986 37.9482 256.926 37.9482 256.777 37.9482H256.509V38.5489H256.867C257.046 38.5489 257.165 38.4287 257.165 38.2485C257.165 38.1284 257.105 38.0383 257.016 37.9782Z" fill="black"/>
</svg>
